<mxfile host="app.diagrams.net" agent="Mozilla/5.0 (X11; Linux x86_64; rv:144.0) Gecko/20100101 Firefox/144.0" version="28.2.8">
  <diagram name="Page-1" id="waZ6OkVSSsrsFuy_pqfZ">
    <mxGraphModel dx="1141" dy="636" grid="1" gridSize="10" guides="1" tooltips="1" connect="1" arrows="1" fold="1" page="1" pageScale="1" pageWidth="1169" pageHeight="827" math="0" shadow="0">
      <root>
        <mxCell id="0" />
        <mxCell id="1" parent="0" />
        <mxCell id="_MH51mvYhy1DslRa7ztJ-1" value="&lt;div&gt;MCU&lt;/div&gt;" style="rounded=0;whiteSpace=wrap;html=1;glass=0;shadow=1;fontStyle=1;fontFamily=Helvetica;" parent="1" vertex="1">
          <mxGeometry x="520" y="320" width="80" height="80" as="geometry" />
        </mxCell>
        <mxCell id="_MH51mvYhy1DslRa7ztJ-3" value="STEPPER DRIVER" style="rounded=0;whiteSpace=wrap;html=1;fontStyle=1;fontFamily=Helvetica;" parent="1" vertex="1">
          <mxGeometry x="520" y="200" width="80" height="80" as="geometry" />
        </mxCell>
        <mxCell id="_MH51mvYhy1DslRa7ztJ-4" value="POSITION SENSOR" style="rounded=0;whiteSpace=wrap;html=1;fontStyle=1;fontFamily=Helvetica;" parent="1" vertex="1">
          <mxGeometry x="640" y="200" width="80" height="80" as="geometry" />
        </mxCell>
        <mxCell id="_MH51mvYhy1DslRa7ztJ-5" value="PSU" style="rounded=0;whiteSpace=wrap;html=1;fontStyle=1;fontFamily=Helvetica;" parent="1" vertex="1">
          <mxGeometry x="520" y="440" width="80" height="80" as="geometry" />
        </mxCell>
        <mxCell id="_MH51mvYhy1DslRa7ztJ-22" value="" style="endArrow=none;html=1;rounded=0;exitX=0.5;exitY=0;exitDx=0;exitDy=0;fontStyle=1;fontFamily=Helvetica;" parent="1" source="_MH51mvYhy1DslRa7ztJ-5" edge="1">
          <mxGeometry width="50" height="50" relative="1" as="geometry">
            <mxPoint x="630" y="400" as="sourcePoint" />
            <mxPoint x="560" y="440" as="targetPoint" />
          </mxGeometry>
        </mxCell>
        <mxCell id="_MH51mvYhy1DslRa7ztJ-23" value="" style="endArrow=none;html=1;rounded=0;fontStyle=1;fontFamily=Helvetica;" parent="1" edge="1">
          <mxGeometry width="50" height="50" relative="1" as="geometry">
            <mxPoint x="560" y="420" as="sourcePoint" />
            <mxPoint x="700" y="420" as="targetPoint" />
          </mxGeometry>
        </mxCell>
        <mxCell id="_MH51mvYhy1DslRa7ztJ-24" value="" style="endArrow=none;html=1;rounded=0;fontStyle=1;fontFamily=Helvetica;" parent="1" source="_MH51mvYhy1DslRa7ztJ-105" edge="1">
          <mxGeometry width="50" height="50" relative="1" as="geometry">
            <mxPoint x="560" y="440" as="sourcePoint" />
            <mxPoint x="400" y="420" as="targetPoint" />
          </mxGeometry>
        </mxCell>
        <mxCell id="_MH51mvYhy1DslRa7ztJ-26" value="" style="endArrow=classic;html=1;rounded=0;entryX=0.5;entryY=1;entryDx=0;entryDy=0;fontStyle=1;fontFamily=Helvetica;" parent="1" source="_MH51mvYhy1DslRa7ztJ-102" edge="1">
          <mxGeometry width="50" height="50" relative="1" as="geometry">
            <mxPoint x="559.71" y="440" as="sourcePoint" />
            <mxPoint x="559.71" y="400" as="targetPoint" />
          </mxGeometry>
        </mxCell>
        <mxCell id="_MH51mvYhy1DslRa7ztJ-28" value="CURRENT SENSOR" style="whiteSpace=wrap;html=1;aspect=fixed;fontStyle=1;fontFamily=Helvetica;" parent="1" vertex="1">
          <mxGeometry x="400" y="200" width="80" height="80" as="geometry" />
        </mxCell>
        <mxCell id="_MH51mvYhy1DslRa7ztJ-29" value="" style="endArrow=none;html=1;rounded=0;fontStyle=1;fontFamily=Helvetica;" parent="1" edge="1">
          <mxGeometry width="50" height="50" relative="1" as="geometry">
            <mxPoint x="360" y="420" as="sourcePoint" />
            <mxPoint x="400" y="420" as="targetPoint" />
          </mxGeometry>
        </mxCell>
        <mxCell id="_MH51mvYhy1DslRa7ztJ-30" value="" style="endArrow=none;html=1;rounded=0;fontStyle=1;fontFamily=Helvetica;" parent="1" edge="1">
          <mxGeometry width="50" height="50" relative="1" as="geometry">
            <mxPoint x="360" y="420" as="sourcePoint" />
            <mxPoint x="360" y="240" as="targetPoint" />
          </mxGeometry>
        </mxCell>
        <mxCell id="_MH51mvYhy1DslRa7ztJ-31" value="" style="endArrow=classic;html=1;rounded=0;entryX=0;entryY=0.5;entryDx=0;entryDy=0;fontStyle=1;fontFamily=Helvetica;" parent="1" target="_MH51mvYhy1DslRa7ztJ-28" edge="1">
          <mxGeometry width="50" height="50" relative="1" as="geometry">
            <mxPoint x="360" y="240" as="sourcePoint" />
            <mxPoint x="330" y="190" as="targetPoint" />
          </mxGeometry>
        </mxCell>
        <mxCell id="_MH51mvYhy1DslRa7ztJ-36" value="STEPPER" style="rounded=0;whiteSpace=wrap;html=1;fontStyle=1;fontFamily=Helvetica;" parent="1" vertex="1">
          <mxGeometry x="520" y="80" width="80" height="80" as="geometry" />
        </mxCell>
        <mxCell id="_MH51mvYhy1DslRa7ztJ-37" value="DC SOURCE" style="rounded=0;whiteSpace=wrap;html=1;fontStyle=1;fontFamily=Helvetica;" parent="1" vertex="1">
          <mxGeometry x="520" y="560" width="80" height="80" as="geometry" />
        </mxCell>
        <mxCell id="_MH51mvYhy1DslRa7ztJ-38" value="" style="endArrow=classic;html=1;rounded=0;entryX=0.5;entryY=1;entryDx=0;entryDy=0;fontStyle=1;fontFamily=Helvetica;" parent="1" target="_MH51mvYhy1DslRa7ztJ-5" edge="1">
          <mxGeometry width="50" height="50" relative="1" as="geometry">
            <mxPoint x="560" y="540" as="sourcePoint" />
            <mxPoint x="590" y="540" as="targetPoint" />
          </mxGeometry>
        </mxCell>
        <mxCell id="_MH51mvYhy1DslRa7ztJ-43" value="" style="endArrow=none;html=1;rounded=0;fontStyle=1;fontFamily=Helvetica;" parent="1" edge="1">
          <mxGeometry width="50" height="50" relative="1" as="geometry">
            <mxPoint x="560" y="540" as="sourcePoint" />
            <mxPoint x="640" y="540" as="targetPoint" />
          </mxGeometry>
        </mxCell>
        <mxCell id="_MH51mvYhy1DslRa7ztJ-44" value="" style="endArrow=classic;html=1;rounded=0;entryX=0.75;entryY=1;entryDx=0;entryDy=0;fontStyle=1;fontFamily=Helvetica;" parent="1" target="_MH51mvYhy1DslRa7ztJ-4" edge="1">
          <mxGeometry width="50" height="50" relative="1" as="geometry">
            <mxPoint x="700" y="420" as="sourcePoint" />
            <mxPoint x="689.9999999999998" y="280" as="targetPoint" />
            <Array as="points">
              <mxPoint x="700" y="310" />
            </Array>
          </mxGeometry>
        </mxCell>
        <mxCell id="_MH51mvYhy1DslRa7ztJ-91" value="" style="endArrow=none;html=1;rounded=0;fontStyle=1;fontFamily=Helvetica;" parent="1" edge="1">
          <mxGeometry width="50" height="50" relative="1" as="geometry">
            <mxPoint x="640" y="430" as="sourcePoint" />
            <mxPoint x="640" y="300" as="targetPoint" />
          </mxGeometry>
        </mxCell>
        <mxCell id="_MH51mvYhy1DslRa7ztJ-92" value="" style="endArrow=none;html=1;rounded=0;fontStyle=1;fontFamily=Helvetica;" parent="1" edge="1">
          <mxGeometry width="50" height="50" relative="1" as="geometry">
            <mxPoint x="580" y="300" as="sourcePoint" />
            <mxPoint x="640" y="300" as="targetPoint" />
          </mxGeometry>
        </mxCell>
        <mxCell id="_MH51mvYhy1DslRa7ztJ-93" value="" style="endArrow=classic;html=1;rounded=0;entryX=0.5;entryY=1;entryDx=0;entryDy=0;exitX=0.25;exitY=0;exitDx=0;exitDy=0;fontStyle=1;fontFamily=Helvetica;" parent="1" source="_MH51mvYhy1DslRa7ztJ-1" target="_MH51mvYhy1DslRa7ztJ-3" edge="1">
          <mxGeometry width="50" height="50" relative="1" as="geometry">
            <mxPoint x="580" y="380" as="sourcePoint" />
            <mxPoint x="630" y="330" as="targetPoint" />
            <Array as="points">
              <mxPoint x="560" y="320" />
            </Array>
          </mxGeometry>
        </mxCell>
        <mxCell id="_MH51mvYhy1DslRa7ztJ-94" value="" style="endArrow=classic;html=1;rounded=0;entryX=1;entryY=0.5;entryDx=0;entryDy=0;exitX=0;exitY=0.5;exitDx=0;exitDy=0;fontStyle=1;fontFamily=Helvetica;" parent="1" source="_MH51mvYhy1DslRa7ztJ-3" target="_MH51mvYhy1DslRa7ztJ-28" edge="1">
          <mxGeometry width="50" height="50" relative="1" as="geometry">
            <mxPoint x="580" y="370" as="sourcePoint" />
            <mxPoint x="630" y="320" as="targetPoint" />
          </mxGeometry>
        </mxCell>
        <mxCell id="_MH51mvYhy1DslRa7ztJ-95" value="" style="endArrow=classic;html=1;rounded=0;entryX=0.75;entryY=1;entryDx=0;entryDy=0;fontStyle=1;fontFamily=Helvetica;" parent="1" target="_MH51mvYhy1DslRa7ztJ-3" edge="1">
          <mxGeometry width="50" height="50" relative="1" as="geometry">
            <mxPoint x="580" y="300" as="sourcePoint" />
            <mxPoint x="630" y="280" as="targetPoint" />
          </mxGeometry>
        </mxCell>
        <mxCell id="_MH51mvYhy1DslRa7ztJ-96" value="" style="endArrow=none;html=1;rounded=0;exitX=1;exitY=0.5;exitDx=0;exitDy=0;fontStyle=1;fontFamily=Helvetica;" parent="1" source="_MH51mvYhy1DslRa7ztJ-36" edge="1">
          <mxGeometry width="50" height="50" relative="1" as="geometry">
            <mxPoint x="580" y="260" as="sourcePoint" />
            <mxPoint x="680" y="120" as="targetPoint" />
          </mxGeometry>
        </mxCell>
        <mxCell id="_MH51mvYhy1DslRa7ztJ-97" value="" style="endArrow=classic;html=1;rounded=0;entryX=0.5;entryY=0;entryDx=0;entryDy=0;fontStyle=1;fontFamily=Helvetica;" parent="1" target="_MH51mvYhy1DslRa7ztJ-4" edge="1">
          <mxGeometry width="50" height="50" relative="1" as="geometry">
            <mxPoint x="680" y="120" as="sourcePoint" />
            <mxPoint x="630" y="210" as="targetPoint" />
          </mxGeometry>
        </mxCell>
        <mxCell id="_MH51mvYhy1DslRa7ztJ-98" value="" style="endArrow=classic;html=1;rounded=0;entryX=0.25;entryY=1;entryDx=0;entryDy=0;fontStyle=1;fontFamily=Helvetica;" parent="1" target="_MH51mvYhy1DslRa7ztJ-3" edge="1">
          <mxGeometry width="50" height="50" relative="1" as="geometry">
            <mxPoint x="540" y="300" as="sourcePoint" />
            <mxPoint x="630" y="330" as="targetPoint" />
          </mxGeometry>
        </mxCell>
        <mxCell id="_MH51mvYhy1DslRa7ztJ-99" value="" style="endArrow=none;html=1;rounded=0;fontStyle=1;fontFamily=Helvetica;" parent="1" edge="1">
          <mxGeometry width="50" height="50" relative="1" as="geometry">
            <mxPoint x="640" y="540" as="sourcePoint" />
            <mxPoint x="640" y="430" as="targetPoint" />
          </mxGeometry>
        </mxCell>
        <mxCell id="_MH51mvYhy1DslRa7ztJ-100" value="" style="endArrow=none;html=1;rounded=0;fontStyle=1;fontFamily=Helvetica;" parent="1" edge="1">
          <mxGeometry width="50" height="50" relative="1" as="geometry">
            <mxPoint x="480" y="300" as="sourcePoint" />
            <mxPoint x="540" y="300" as="targetPoint" />
          </mxGeometry>
        </mxCell>
        <mxCell id="_MH51mvYhy1DslRa7ztJ-101" value="" style="endArrow=none;html=1;rounded=0;fontStyle=1;fontFamily=Helvetica;" parent="1" source="_MH51mvYhy1DslRa7ztJ-103" edge="1">
          <mxGeometry width="50" height="50" relative="1" as="geometry">
            <mxPoint x="480" y="440" as="sourcePoint" />
            <mxPoint x="480" y="300" as="targetPoint" />
          </mxGeometry>
        </mxCell>
        <mxCell id="_MH51mvYhy1DslRa7ztJ-104" value="" style="endArrow=none;html=1;rounded=0;fontStyle=1;fontFamily=Helvetica;" parent="1" source="_MH51mvYhy1DslRa7ztJ-102" target="_MH51mvYhy1DslRa7ztJ-103" edge="1">
          <mxGeometry width="50" height="50" relative="1" as="geometry">
            <mxPoint x="560" y="440" as="sourcePoint" />
            <mxPoint x="400" y="440" as="targetPoint" />
          </mxGeometry>
        </mxCell>
        <mxCell id="_MH51mvYhy1DslRa7ztJ-113" value="" style="endArrow=classic;html=1;rounded=0;entryX=0.25;entryY=1;entryDx=0;entryDy=0;exitX=0.502;exitY=0.362;exitDx=0;exitDy=0;exitPerimeter=0;fontStyle=1;fontFamily=Helvetica;" parent="1" source="_MH51mvYhy1DslRa7ztJ-105" target="_MH51mvYhy1DslRa7ztJ-28" edge="1">
          <mxGeometry width="50" height="50" relative="1" as="geometry">
            <mxPoint x="420" y="440" as="sourcePoint" />
            <mxPoint x="580" y="340" as="targetPoint" />
          </mxGeometry>
        </mxCell>
        <mxCell id="_MH51mvYhy1DslRa7ztJ-114" value="" style="endArrow=none;html=1;rounded=0;fontStyle=1;fontFamily=Helvetica;" parent="1" source="_MH51mvYhy1DslRa7ztJ-103" target="_MH51mvYhy1DslRa7ztJ-105" edge="1">
          <mxGeometry width="50" height="50" relative="1" as="geometry">
            <mxPoint x="480" y="440" as="sourcePoint" />
            <mxPoint x="400" y="440" as="targetPoint" />
          </mxGeometry>
        </mxCell>
        <mxCell id="_MH51mvYhy1DslRa7ztJ-105" value="" style="shape=waypoint;sketch=0;size=6;pointerEvents=1;points=[];fillColor=none;resizable=0;rotatable=0;perimeter=centerPerimeter;snapToPoint=1;fontStyle=1;fontFamily=Helvetica;" parent="1" vertex="1">
          <mxGeometry x="410" y="410" width="20" height="20" as="geometry" />
        </mxCell>
        <mxCell id="_MH51mvYhy1DslRa7ztJ-115" value="" style="endArrow=classic;html=1;rounded=0;entryX=0.75;entryY=1;entryDx=0;entryDy=0;fontStyle=1;fontFamily=Helvetica;" parent="1" target="_MH51mvYhy1DslRa7ztJ-28" edge="1">
          <mxGeometry width="50" height="50" relative="1" as="geometry">
            <mxPoint x="460" y="360" as="sourcePoint" />
            <mxPoint x="580" y="340" as="targetPoint" />
          </mxGeometry>
        </mxCell>
        <mxCell id="_MH51mvYhy1DslRa7ztJ-116" value="" style="endArrow=classic;html=1;rounded=0;entryX=0.75;entryY=1;entryDx=0;entryDy=0;fontStyle=1;fontFamily=Helvetica;" parent="1" edge="1">
          <mxGeometry width="50" height="50" relative="1" as="geometry">
            <mxPoint x="660" y="360" as="sourcePoint" />
            <mxPoint x="660" y="280" as="targetPoint" />
          </mxGeometry>
        </mxCell>
        <mxCell id="_MH51mvYhy1DslRa7ztJ-117" value="" style="endArrow=classic;html=1;rounded=0;entryX=0;entryY=0.5;entryDx=0;entryDy=0;fontStyle=1;fontFamily=Helvetica;" parent="1" target="_MH51mvYhy1DslRa7ztJ-1" edge="1">
          <mxGeometry width="50" height="50" relative="1" as="geometry">
            <mxPoint x="460" y="360" as="sourcePoint" />
            <mxPoint x="580" y="340" as="targetPoint" />
          </mxGeometry>
        </mxCell>
        <mxCell id="_MH51mvYhy1DslRa7ztJ-118" value="" style="endArrow=classic;html=1;rounded=0;entryX=1;entryY=0.5;entryDx=0;entryDy=0;fontStyle=1;fontFamily=Helvetica;" parent="1" target="_MH51mvYhy1DslRa7ztJ-1" edge="1">
          <mxGeometry width="50" height="50" relative="1" as="geometry">
            <mxPoint x="660" y="360" as="sourcePoint" />
            <mxPoint x="580" y="340" as="targetPoint" />
            <Array as="points">
              <mxPoint x="600" y="360" />
            </Array>
          </mxGeometry>
        </mxCell>
        <mxCell id="_MH51mvYhy1DslRa7ztJ-120" value="" style="endArrow=classic;html=1;rounded=0;entryX=0.5;entryY=1;entryDx=0;entryDy=0;exitX=0.5;exitY=0;exitDx=0;exitDy=0;fontStyle=1;fontFamily=Helvetica;" parent="1" source="_MH51mvYhy1DslRa7ztJ-3" target="_MH51mvYhy1DslRa7ztJ-36" edge="1">
          <mxGeometry width="50" height="50" relative="1" as="geometry">
            <mxPoint x="500" y="240" as="sourcePoint" />
            <mxPoint x="550" y="190" as="targetPoint" />
          </mxGeometry>
        </mxCell>
        <mxCell id="_MH51mvYhy1DslRa7ztJ-102" value="" style="shape=waypoint;sketch=0;size=6;pointerEvents=1;points=[];fillColor=none;resizable=0;rotatable=0;perimeter=centerPerimeter;snapToPoint=1;fontStyle=1;fontFamily=Helvetica;" parent="1" vertex="1">
          <mxGeometry x="550" y="410" width="20" height="20" as="geometry" />
        </mxCell>
        <mxCell id="_MH51mvYhy1DslRa7ztJ-124" value="" style="endArrow=none;html=1;rounded=0;fontStyle=1;fontFamily=Helvetica;" parent="1" target="_MH51mvYhy1DslRa7ztJ-103" edge="1">
          <mxGeometry width="50" height="50" relative="1" as="geometry">
            <mxPoint x="480" y="420" as="sourcePoint" />
            <mxPoint x="480" y="300" as="targetPoint" />
          </mxGeometry>
        </mxCell>
        <mxCell id="_MH51mvYhy1DslRa7ztJ-103" value="" style="shape=waypoint;sketch=0;size=6;pointerEvents=1;points=[];fillColor=none;resizable=0;rotatable=0;perimeter=centerPerimeter;snapToPoint=1;fontStyle=1;fontFamily=Helvetica;" parent="1" vertex="1">
          <mxGeometry x="470" y="410" width="20" height="20" as="geometry" />
        </mxCell>
        <mxCell id="_MH51mvYhy1DslRa7ztJ-125" value="" style="endArrow=none;html=1;rounded=0;exitX=0.5;exitY=-0.013;exitDx=0;exitDy=0;exitPerimeter=0;fontStyle=1;fontFamily=Helvetica;" parent="1" source="_MH51mvYhy1DslRa7ztJ-5" target="_MH51mvYhy1DslRa7ztJ-102" edge="1">
          <mxGeometry width="50" height="50" relative="1" as="geometry">
            <mxPoint x="540" y="450" as="sourcePoint" />
            <mxPoint x="590" y="400" as="targetPoint" />
          </mxGeometry>
        </mxCell>
        <mxCell id="_MH51mvYhy1DslRa7ztJ-126" value="" style="endArrow=none;html=1;rounded=0;exitDx=0;exitDy=0;fontStyle=1;fontFamily=Helvetica;" parent="1" source="_MH51mvYhy1DslRa7ztJ-127" edge="1">
          <mxGeometry width="50" height="50" relative="1" as="geometry">
            <mxPoint x="580" y="550" as="sourcePoint" />
            <mxPoint x="560" y="540" as="targetPoint" />
          </mxGeometry>
        </mxCell>
        <mxCell id="_MH51mvYhy1DslRa7ztJ-128" value="" style="endArrow=none;html=1;rounded=0;exitX=0.5;exitY=0;exitDx=0;exitDy=0;fontStyle=1;fontFamily=Helvetica;" parent="1" source="_MH51mvYhy1DslRa7ztJ-37" target="_MH51mvYhy1DslRa7ztJ-127" edge="1">
          <mxGeometry width="50" height="50" relative="1" as="geometry">
            <mxPoint x="560" y="560" as="sourcePoint" />
            <mxPoint x="560" y="540" as="targetPoint" />
          </mxGeometry>
        </mxCell>
        <mxCell id="_MH51mvYhy1DslRa7ztJ-127" value="" style="shape=waypoint;sketch=0;size=6;pointerEvents=1;points=[];fillColor=none;resizable=0;rotatable=0;perimeter=centerPerimeter;snapToPoint=1;fontStyle=1;fontFamily=Helvetica;" parent="1" vertex="1">
          <mxGeometry x="550" y="530" width="20" height="20" as="geometry" />
        </mxCell>
        <mxCell id="-h3a0Sp1wz7JB-BzqZad-2" value="" style="endArrow=none;dashed=1;html=1;rounded=0;" edge="1" parent="1">
          <mxGeometry width="50" height="50" relative="1" as="geometry">
            <mxPoint x="340" y="180" as="sourcePoint" />
            <mxPoint x="740" y="180" as="targetPoint" />
          </mxGeometry>
        </mxCell>
        <mxCell id="-h3a0Sp1wz7JB-BzqZad-3" value="" style="endArrow=none;dashed=1;html=1;rounded=0;" edge="1" parent="1">
          <mxGeometry width="50" height="50" relative="1" as="geometry">
            <mxPoint x="340" y="180" as="sourcePoint" />
            <mxPoint x="340" y="540" as="targetPoint" />
          </mxGeometry>
        </mxCell>
        <mxCell id="-h3a0Sp1wz7JB-BzqZad-4" value="" style="endArrow=none;dashed=1;html=1;rounded=0;" edge="1" parent="1">
          <mxGeometry width="50" height="50" relative="1" as="geometry">
            <mxPoint x="340" y="540" as="sourcePoint" />
            <mxPoint x="740" y="540" as="targetPoint" />
          </mxGeometry>
        </mxCell>
        <mxCell id="-h3a0Sp1wz7JB-BzqZad-5" value="" style="endArrow=none;dashed=1;html=1;rounded=0;" edge="1" parent="1">
          <mxGeometry width="50" height="50" relative="1" as="geometry">
            <mxPoint x="740" y="540" as="sourcePoint" />
            <mxPoint x="740" y="180" as="targetPoint" />
          </mxGeometry>
        </mxCell>
        <mxCell id="-h3a0Sp1wz7JB-BzqZad-6" value="&lt;font style=&quot;font-size: 16px;&quot;&gt;&lt;b&gt;PCB&lt;/b&gt;&lt;/font&gt;" style="text;html=1;whiteSpace=wrap;strokeColor=none;fillColor=none;align=center;verticalAlign=middle;rounded=0;" vertex="1" parent="1">
          <mxGeometry x="360" y="490" width="60" height="30" as="geometry" />
        </mxCell>
      </root>
    </mxGraphModel>
  </diagram>
</mxfile>
